<svg width="68" height="16" viewBox="0 0 68 16" fill="none" xmlns="http://www.w3.org/2000/svg">
<path d="M4.21242 0.580539L0 12.5151H1.82884L3.04998 9.00308H7.62889L8.85217 12.5158H10.7397L6.528 0.580539H4.21242ZM3.62476 7.34927L5.3448 2.40018L7.05625 7.34927H3.62476ZM18.5848 4.79145C18.8618 5.31508 18.9978 5.90272 18.9792 6.4969V12.4984H17.1668V6.80381C17.1668 6.16381 17.0036 5.70418 16.68 5.41472C16.322 5.11656 15.8676 4.96439 15.4052 4.98781C15.0917 4.98781 14.7811 5.04818 14.4904 5.16672C14.1927 5.28844 13.9382 5.49888 13.7603 5.77036C13.5557 6.09489 13.4561 6.47634 13.4755 6.86127V12.5216H11.6459V3.57108H13.4669V4.63654C13.5694 4.47993 13.6906 4.33678 13.8276 4.21036C14.1211 3.94345 14.4625 3.73763 14.8347 3.60527C15.2192 3.46301 15.6253 3.39087 16.0344 3.39218C16.551 3.38454 17.0614 3.5075 17.5197 3.74999C17.9656 3.98999 18.3357 4.35508 18.5848 4.8009V4.79218V4.79145ZM26.17 2.57545C25.8105 2.80571 25.5503 3.16593 25.442 3.58345C25.0238 3.44768 24.5869 3.38065 24.1479 3.3849C23.5301 3.37273 22.9181 3.50721 22.3605 3.77763C21.8552 4.02535 21.4259 4.40828 21.1187 4.88527C20.8016 5.39459 20.6412 5.98833 20.6577 6.59072C20.6412 7.17981 20.7958 7.76163 21.1022 8.26127C21.2575 8.50708 21.4494 8.72672 21.6705 8.91363C21.6433 8.92672 21.6161 8.9369 21.5889 8.95218C21.2908 9.1059 21.0364 9.33477 20.8502 9.6169C20.6462 9.93262 20.5437 10.3049 20.5568 10.6824C20.5682 10.9565 20.6398 11.2249 20.7665 11.4671C20.9075 11.7434 21.1265 11.9704 21.3964 12.1187C21.1143 12.1818 20.8487 12.3055 20.6176 12.4816C20.4263 12.6258 20.2728 12.8154 20.1704 13.0339C20.0681 13.2523 20.0201 13.493 20.0307 13.7347C20.0307 14.4605 20.38 15.0176 21.0793 15.4053C21.7786 15.7936 22.7113 15.9914 23.8795 16.0002C25.2094 16.0002 26.2695 15.7471 27.0597 15.2416C27.433 15.0186 27.74 14.6973 27.9483 14.3116C28.1566 13.9258 28.2584 13.49 28.2429 13.0504C28.2573 12.7489 28.2069 12.4479 28.0953 12.1682C27.9837 11.8885 27.8135 11.6369 27.5966 11.4307C27.1192 11.016 26.5038 10.8026 25.8765 10.8344H25.3146C25.0519 10.8344 24.7728 10.8467 24.475 10.8598L23.6697 10.8853H23.1665C22.8967 10.8984 22.629 10.8336 22.3942 10.6976C22.3032 10.6407 22.2288 10.5602 22.1787 10.4643C22.1286 10.3684 22.1047 10.2606 22.1093 10.1522C22.108 10.0421 22.1307 9.93309 22.1756 9.8329C22.2205 9.73272 22.2866 9.64382 22.3691 9.57254C22.4243 9.52163 22.4837 9.47508 22.5452 9.43436C23.0217 9.62072 23.5286 9.71375 24.0391 9.70854C24.6504 9.71945 25.2559 9.58781 25.8092 9.32527C26.3165 9.08016 26.7465 8.69637 27.0511 8.2169C27.3649 7.70608 27.5253 7.11344 27.5128 6.51145C27.5282 5.92355 27.3766 5.34359 27.0762 4.8409C26.918 4.58905 26.7219 4.36401 26.4949 4.17399C26.5679 4.09509 26.6578 4.03436 26.7576 3.99654C27.0934 3.86708 27.6073 3.8729 28.3016 4.02199V2.31727C27.4341 2.1369 26.724 2.22563 26.17 2.58345V2.57545ZM25.6081 12.4554C25.8772 12.4373 26.1442 12.5224 26.3547 12.6947C26.4417 12.7752 26.5102 12.8742 26.5551 12.9848C26.6 13.0953 26.6203 13.2146 26.6145 13.334C26.614 13.557 26.5485 13.7748 26.4262 13.9599C26.3039 14.145 26.1303 14.2891 25.9273 14.374C25.4678 14.6125 24.8307 14.7318 24.014 14.7318C23.2295 14.7318 22.6419 14.6169 22.2517 14.3914C22.0801 14.3121 21.934 14.1852 21.8302 14.0253C21.7263 13.8654 21.669 13.679 21.6648 13.4874C21.6734 13.2329 21.7722 12.99 21.9411 12.8038C22.1258 12.59 22.4572 12.4707 22.9396 12.4707L25.6081 12.4562V12.4554ZM25.3733 7.83508C25.2035 7.99812 25.0029 8.1245 24.7837 8.20662C24.5644 8.28875 24.3311 8.3249 24.0978 8.3129C23.8611 8.32627 23.6242 8.28997 23.4019 8.20626C23.1796 8.12256 22.9767 7.99323 22.8058 7.82636C22.6472 7.65603 22.5239 7.45512 22.4431 7.23551C22.3623 7.01589 22.3257 6.78205 22.3355 6.54781C22.3221 6.31319 22.3571 6.07832 22.438 5.85818C22.519 5.63805 22.6442 5.43747 22.8058 5.26927C22.9792 5.10703 23.1829 4.9819 23.4049 4.90131C23.6268 4.82072 23.8625 4.78633 24.0978 4.80018C24.3312 4.78758 24.5647 4.82346 24.784 4.90561C25.0033 4.98776 25.2038 5.11447 25.3733 5.27799C25.5329 5.44753 25.6569 5.64833 25.7376 5.86815C25.8184 6.08797 25.8542 6.3222 25.8429 6.55654C25.8549 6.79227 25.8194 7.02802 25.7387 7.24936C25.658 7.4707 25.5336 7.67298 25.3733 7.84381V7.83508ZM35.1059 3.85472C34.5051 3.53724 33.8361 3.37607 33.159 3.38563C32.4267 3.37542 31.7043 3.55755 31.0617 3.91436C30.414 4.28091 29.886 4.83204 29.5428 5.49981C29.1419 6.31613 28.9515 7.2225 28.9895 8.13399C28.9706 8.96535 29.137 9.79028 29.4762 10.5471C29.7788 11.2098 30.2733 11.7629 30.8935 12.1325C31.5785 12.518 32.3523 12.7093 33.1339 12.6867C34.0199 12.7121 34.8915 12.455 35.6263 11.9514C36.3239 11.4484 36.8093 10.6966 36.9856 9.84599H35.1231C35.0214 10.2278 34.7859 10.5587 34.4603 10.7747C34.0825 11.0105 33.6441 11.1262 33.2012 11.1071C32.4167 11.1071 31.8183 10.8314 31.406 10.2802C31.0395 9.75812 30.8304 9.13904 30.804 8.49836H37.0106C37.0214 8.31799 37.0278 8.12381 37.0278 7.91945C37.0278 6.86199 36.851 6.0009 36.4988 5.33617C36.1918 4.71344 35.7061 4.19993 35.1059 3.86345V3.85472ZM31.4232 5.71218C31.6256 5.44773 31.8874 5.23629 32.1866 5.09549C32.4858 4.95468 32.8138 4.88859 33.1432 4.90272C33.5377 4.89677 33.9264 4.99983 34.2677 5.2009C34.6177 5.41763 34.8883 5.74345 35.04 6.13036C35.1617 6.44018 35.2276 6.7689 35.2369 7.10199H30.8777C30.9422 6.60236 31.1297 6.12745 31.4232 5.7209V5.71218ZM38.6133 0.571812H40.4428V12.5064H38.6133V0.571812ZM44.3339 10.8358H49.7395V12.5071H42.5036V0.571812H44.3331L44.3339 10.8358ZM51.0143 3.56381H52.8417V12.5165H51.0143V3.56381ZM52.6928 0.324539C52.7931 0.427726 52.8719 0.550258 52.9248 0.684908C52.9776 0.819558 53.0034 0.9636 53.0006 1.10854C53.0061 1.32934 52.9465 1.54677 52.8296 1.73297C52.7126 1.91916 52.5437 2.06564 52.3443 2.15363C52.2128 2.2091 52.0714 2.23634 51.9291 2.23363C51.7837 2.23775 51.6391 2.21111 51.5044 2.15539C51.3697 2.09968 51.2479 2.01611 51.1467 1.90999C51.0454 1.80404 50.9659 1.67854 50.9131 1.54089C50.8602 1.40325 50.835 1.25624 50.839 1.10854C50.836 0.963584 50.8618 0.819506 50.9146 0.684839C50.9675 0.550171 51.0464 0.427653 51.1467 0.324539C51.2479 0.218425 51.3697 0.134856 51.5044 0.0791401C51.6391 0.0234247 51.7837 -0.0032186 51.9291 0.000902905C52.0716 -0.002138 52.2131 0.0250773 52.3446 0.0808066C52.4761 0.136536 52.5947 0.219552 52.6928 0.324539ZM55.9883 6.03654C55.9804 6.16208 56.0003 6.28783 56.0468 6.40443C56.0933 6.52103 56.1651 6.62548 56.2568 6.70999C56.4765 6.88163 56.7313 7.0009 57.0033 7.05908C57.3219 7.13908 57.6883 7.21036 58.1028 7.27217C58.4814 7.32745 58.8565 7.40454 59.2266 7.50272C59.5859 7.59508 59.9309 7.73836 60.2502 7.9289C60.5601 8.11145 60.8178 8.37254 60.9974 8.68745C61.1957 9.06417 61.2909 9.48818 61.2737 9.91508C61.2737 10.8024 60.9581 11.4838 60.326 11.9616C59.694 12.4387 58.8551 12.6773 57.8086 12.6773C57.1054 12.7 56.4061 12.5634 55.7614 12.2773C55.2538 12.0457 54.8185 11.6769 54.5031 11.2111C54.2252 10.7901 54.0498 10.308 53.9913 9.80454H55.77C55.8502 10.2118 56.0735 10.5754 56.3992 10.8278C56.7349 11.0896 57.2102 11.2198 57.8258 11.2198C58.2646 11.2442 58.7012 11.1407 59.0841 10.9216C59.2288 10.834 59.3478 10.7087 59.429 10.5588C59.5102 10.4088 59.5505 10.2396 59.5458 10.0685C59.559 9.87992 59.5101 9.69221 59.4068 9.5349C59.3036 9.37758 59.1518 9.25959 58.9753 9.19945C58.4699 9.02137 57.9466 8.90112 57.4149 8.8409C57.0418 8.79166 56.6719 8.72051 56.3069 8.62781C55.9511 8.5415 55.6093 8.40386 55.2919 8.21908C54.988 8.03905 54.7339 7.78387 54.5532 7.47727C54.3539 7.10396 54.2581 6.68265 54.2762 6.25836C54.2579 5.69934 54.4104 5.1483 54.7128 4.6809C55.0153 4.24575 55.4348 3.9084 55.9211 3.70927C56.4748 3.48025 57.0684 3.3672 57.6662 3.3769C58.2007 3.3663 58.7325 3.45579 59.2352 3.6409C59.656 3.79727 60.044 4.03436 60.3761 4.33981C60.6682 4.60745 60.9072 4.9289 61.0812 5.28599C61.2372 5.59872 61.326 5.94199 61.341 6.29181H59.5623C59.4893 5.8915 59.2852 5.52804 58.9832 5.26054C58.6768 4.9769 58.2159 4.83436 57.5989 4.83436C57.1848 4.81268 56.7743 4.92304 56.425 5.14999C56.2842 5.24756 56.1708 5.3805 56.0956 5.53587C56.0205 5.69123 55.9862 5.86373 55.9962 6.03654H55.9883ZM65.3351 5.16672V9.34417C65.3137 9.75799 65.4103 10.1689 65.6121 10.5296C65.7968 10.8191 66.1704 10.9551 66.7281 10.9551C67.0105 10.9523 67.2918 10.9181 67.567 10.8533V12.4729C67.1511 12.5442 66.7302 12.5842 66.3086 12.5922C65.348 12.5922 64.6401 12.334 64.1856 11.8162C63.731 11.2998 63.5048 10.5405 63.5056 9.53981V5.15872H61.8449V3.55654H63.5056V1.42563H65.3351V3.55654H67.5856V5.15872L65.3351 5.16672Z" fill="#002B31"/>
</svg>
