<svg width="88" height="16" viewBox="0 0 88 16" fill="none" xmlns="http://www.w3.org/2000/svg">
<path d="M7.55934 0C8.30951 0 9.00197 0.0567376 9.63672 0.22695C10.2715 0.340426 10.7908 0.567376 11.2525 0.851064C11.7141 1.13475 12.0603 1.53191 12.2911 2.04255C12.522 2.55319 12.6374 3.17731 12.6374 3.85816C12.6374 4.65248 12.4643 5.33333 12.0603 5.84397C11.7141 6.35461 11.137 6.80851 10.4446 7.14894C11.4256 7.43262 12.1757 7.94326 12.6374 8.62411C13.099 9.30497 13.3875 10.156 13.3875 11.1206C13.3875 11.9149 13.2144 12.5957 12.9259 13.1631C12.6374 13.7305 12.1757 14.2411 11.6564 14.5816C11.137 14.922 10.5023 15.2057 9.80984 15.3759C9.11738 15.5461 8.42492 15.6596 7.73246 15.6596H0V0H7.55934ZM7.0977 6.35461C7.73246 6.35461 8.2518 6.1844 8.65574 5.90071C9.05967 5.61702 9.23279 5.10638 9.23279 4.48227C9.23279 4.14184 9.17508 3.80142 9.05967 3.57447C8.94426 3.34752 8.77115 3.17731 8.54033 3.00709C8.30951 2.89362 8.07869 2.78014 7.79016 2.7234C7.50164 2.66667 7.21311 2.66667 6.86688 2.66667H3.52V6.35461H7.0977ZM7.27082 13.0496C7.61705 13.0496 7.96328 12.9929 8.2518 12.9362C8.54033 12.8794 8.82885 12.766 9.05967 12.5957C9.29049 12.4255 9.46361 12.2553 9.63672 11.9716C9.75213 11.6879 9.86754 11.3475 9.86754 10.9504C9.86754 10.156 9.63672 9.58865 9.17508 9.19149C8.71344 8.85106 8.07869 8.68085 7.32852 8.68085H3.52V13.0496H7.27082ZM18.4079 12.9929C18.8695 13.4468 19.562 13.6738 20.4852 13.6738C21.12 13.6738 21.697 13.5035 22.1587 13.2199C22.6203 12.8794 22.9089 12.539 23.0243 12.1986H25.8518C25.3902 13.5603 24.6977 14.5248 23.7744 15.1489C22.8511 15.7163 21.7548 16.0567 20.4275 16.0567C19.5043 16.0567 18.6964 15.8865 17.9462 15.6028C17.1961 15.3191 16.619 14.922 16.0997 14.3546C15.5803 13.844 15.1764 13.2199 14.9456 12.4823C14.657 11.7447 14.5416 10.9504 14.5416 10.0426C14.5416 9.19149 14.657 8.39716 14.9456 7.65957C15.2341 6.92199 15.638 6.29787 16.1574 5.7305C16.6767 5.21986 17.3115 4.76596 18.0039 4.48227C18.7541 4.19858 19.5043 4.02837 20.4275 4.02837C21.4085 4.02837 22.2741 4.19858 23.0243 4.59575C23.7744 4.99291 24.3515 5.44681 24.8131 6.12766C25.2748 6.75177 25.621 7.48936 25.8518 8.28369C25.9672 9.07801 26.0249 9.87234 25.9672 10.7801H17.6C17.6 11.6879 17.9462 12.539 18.4079 12.9929ZM22.0433 7.03546C21.6393 6.6383 21.0046 6.41135 20.2544 6.41135C19.7351 6.41135 19.3311 6.52482 18.9849 6.69504C18.6387 6.86525 18.4079 7.0922 18.177 7.31915C17.9462 7.5461 17.8308 7.82979 17.7731 8.11348C17.7154 8.39716 17.6577 8.62411 17.6577 8.85106H22.8511C22.7357 8 22.4472 7.43262 22.0433 7.03546ZM30.4682 0V5.90071H30.5259C30.9298 5.21986 31.4492 4.76596 32.0839 4.48227C32.7187 4.19858 33.2957 4.02837 33.9305 4.02837C34.7961 4.02837 35.4885 4.14184 36.0079 4.36879C36.5272 4.59574 36.9888 4.93617 37.2774 5.33333C37.5659 5.7305 37.7967 6.24113 37.9121 6.80851C38.0275 7.37589 38.0852 8 38.0852 8.73759V15.7163H34.9115V9.30496C34.9115 8.34043 34.7384 7.65957 34.4498 7.20567C34.1613 6.75177 33.642 6.52482 32.8918 6.52482C32.0262 6.52482 31.3915 6.80851 31.0452 7.26241C30.6413 7.77305 30.4682 8.62411 30.4682 9.75887V15.7163H27.2944V0H30.4682ZM40.3934 6.01418C40.7397 5.50355 41.1436 5.16312 41.6629 4.8227C42.1823 4.53901 42.7593 4.31206 43.3941 4.19858C44.0288 4.08511 44.6636 4.02837 45.2984 4.02837C45.8754 4.02837 46.4525 4.08511 47.0872 4.14184C47.6643 4.19858 48.2413 4.36879 48.7029 4.59575C49.2223 4.8227 49.5685 5.16312 49.9147 5.56028C50.2033 5.95745 50.3764 6.52482 50.3764 7.20567V13.1631C50.3764 13.6738 50.4341 14.1844 50.4918 14.6383C50.5495 15.0922 50.7226 15.4894 50.8957 15.7163H47.6643C47.5488 15.6028 47.4911 15.3759 47.4334 15.2057C47.3757 15.0355 47.3757 14.8085 47.3757 14.6383C46.8564 15.1489 46.2793 15.4894 45.5869 15.7163C44.8944 15.9433 44.202 16 43.5095 16C42.9325 16 42.4708 15.9433 41.9515 15.773C41.4898 15.6596 41.0859 15.4326 40.682 15.1489C40.3357 14.8652 40.0472 14.5248 39.8164 14.0709C39.6433 13.617 39.5279 13.1631 39.5279 12.539C39.5279 11.9149 39.6433 11.3475 39.8741 10.9504C40.1049 10.5532 40.3934 10.2128 40.7397 9.92908C41.0859 9.70213 41.5475 9.47518 42.0092 9.3617C42.4708 9.24823 42.9325 9.13475 43.4518 9.07801L44.8367 8.9078C45.2984 8.85106 45.7023 8.79433 46.0485 8.73759C46.3948 8.62411 46.6833 8.51064 46.9141 8.34043C47.1449 8.17021 47.2026 7.94326 47.2026 7.60284C47.2026 7.26241 47.1449 6.97872 47.0295 6.80851C46.9141 6.6383 46.741 6.46809 46.5679 6.35461C46.3947 6.24113 46.1639 6.1844 45.9331 6.12766C45.7023 6.07092 45.4138 6.07092 45.1252 6.07092C44.4905 6.07092 44.0288 6.1844 43.6826 6.46808C43.3364 6.75177 43.1056 7.20567 43.0479 7.77305H39.8741C39.8741 7.0922 40.1049 6.46809 40.3934 6.01418ZM46.6833 10.4397C46.5102 10.4965 46.2793 10.5532 46.0485 10.6099C45.8177 10.6667 45.5869 10.6667 45.2984 10.7234C45.0675 10.7801 44.779 10.7801 44.5482 10.8369L43.8557 11.0071C43.6249 11.0638 43.3941 11.1773 43.2787 11.2908C43.1056 11.4043 42.9902 11.5745 42.8748 11.7447C42.7016 11.9716 42.7016 12.1986 42.7016 12.4823C42.7016 12.766 42.7593 12.9929 42.8748 13.1631C42.9902 13.3333 43.1056 13.5035 43.2787 13.617C43.4518 13.7305 43.6826 13.7872 43.9134 13.844C44.1443 13.9007 44.3751 13.9007 44.6636 13.9007C45.2984 13.9007 45.76 13.7872 46.1062 13.617C46.4525 13.3901 46.6833 13.1631 46.8564 12.8794C47.0295 12.5957 47.1449 12.3121 47.1449 12.0284C47.2026 11.7447 47.2026 11.5177 47.2026 11.3475V10.156C47.0295 10.2695 46.8564 10.383 46.6833 10.4397ZM55.1659 4.31206V5.90071H55.2236C55.6275 5.21986 56.1469 4.76596 56.7816 4.48227C57.4164 4.19858 58.1088 4.02837 58.7436 4.02837C59.6092 4.02837 60.3016 4.14184 60.821 4.36879C61.398 4.59574 61.802 4.93617 62.0905 5.33333C62.379 5.7305 62.6098 6.24113 62.7829 6.80851C62.8984 7.37589 62.9561 8 62.9561 8.73759V15.7163H59.7823V9.30496C59.7823 8.34043 59.6092 7.65957 59.3207 7.20567C59.0321 6.75177 58.5128 6.46808 57.7049 6.46808C56.8393 6.46808 56.2046 6.80851 55.8007 7.31915C55.3967 7.82979 55.2236 8.68085 55.2236 9.8156V15.773H52.0498V4.31206H55.1659ZM70.0538 6.35461C69.5344 6.35461 69.1305 6.46809 68.7843 6.69504C68.438 6.92199 68.1495 7.20567 67.9187 7.60284C67.6879 7.94326 67.5725 8.34043 67.457 8.79433C67.3416 9.24823 67.3416 9.64539 67.3416 10.0993C67.3416 10.4965 67.3993 10.9504 67.457 11.3475C67.5725 11.8014 67.6879 12.1418 67.9187 12.4823C68.1495 12.8227 68.3803 13.1064 68.7266 13.3333C69.0728 13.5603 69.4767 13.6738 69.9961 13.6738C70.7462 13.6738 71.3233 13.4468 71.7849 13.0496C72.1889 12.6525 72.4774 12.0851 72.5351 11.3475H75.5934C75.3626 12.8794 74.7856 14.0142 73.8046 14.8085C72.8236 15.6028 71.5541 16 69.9961 16C69.1305 16 68.3226 15.8298 67.6302 15.5461C66.88 15.2624 66.3029 14.8652 65.7836 14.3546C65.2643 13.844 64.8603 13.2199 64.5718 12.539C64.2833 11.8014 64.1679 11.0638 64.1679 10.2128C64.1679 9.30497 64.2833 8.51064 64.5718 7.77305C64.8603 7.03546 65.2066 6.35461 65.7259 5.78723C66.2452 5.21986 66.88 4.8227 67.5725 4.48227C68.3226 4.19858 69.1305 4.02837 70.0538 4.02837C70.7462 4.02837 71.381 4.14184 72.0157 4.31206C72.6505 4.48227 73.2275 4.76596 73.6892 5.10638C74.2085 5.44681 74.6125 5.90071 74.901 6.46808C75.1895 6.97872 75.3626 7.65957 75.4203 8.39716H72.3043C72.1889 7.03546 71.4387 6.35461 70.0538 6.35461ZM16.9652 1.07801H23.4282V2.60993H16.9652V1.07801ZM80.3829 12.9929C80.8446 13.4468 81.5947 13.6738 82.4603 13.6738C83.0951 13.6738 83.6721 13.5035 84.1338 13.2199C84.5954 12.8794 84.8839 12.539 84.9993 12.1986H87.7692C87.3075 13.5603 86.6151 14.5248 85.6918 15.1489C84.7685 15.7163 83.6721 16.0567 82.3449 16.0567C81.4216 16.0567 80.6138 15.8865 79.8636 15.6028C79.1134 15.3191 78.5364 14.922 78.017 14.3546C77.4977 13.844 77.0938 13.2199 76.8629 12.4823C76.5744 11.7447 76.459 10.9504 76.459 10.0426C76.459 9.19149 76.5744 8.39716 76.8629 7.65957C77.1515 6.92199 77.5554 6.29787 78.0748 5.7305C78.5941 5.21986 79.2288 4.76596 79.9213 4.48227C80.6715 4.19858 81.4793 4.02837 82.3449 4.02837C83.3259 4.02837 84.1915 4.19858 84.8839 4.59575C85.6341 4.99291 86.2111 5.44681 86.6728 6.12766C87.1344 6.75177 87.4807 7.48936 87.7115 8.28369C87.9423 9.07801 88 9.92908 87.9423 10.8369H79.5751C79.5751 11.6879 79.9213 12.539 80.3829 12.9929ZM84.0761 7.03546C83.6721 6.6383 83.0374 6.41135 82.2872 6.41135C81.7679 6.41135 81.3639 6.52482 81.0177 6.69504C80.6715 6.86525 80.3829 7.0922 80.2098 7.31915C80.0367 7.5461 79.8636 7.82979 79.8059 8.11348C79.7482 8.39716 79.6905 8.62411 79.6905 8.85106H84.8839C84.7108 8 84.4223 7.43262 84.0761 7.03546Z" fill="black"/>
</svg>
