<svg width="64" height="16" viewBox="0 0 64 16" fill="none" xmlns="http://www.w3.org/2000/svg">
<path fill-rule="evenodd" clip-rule="evenodd" d="M63.9008 12.6319C61.2264 17.2725 56.9908 15.926 55.7187 14.8717C55.1774 15.2476 54.228 16.0716 52.9622 15.9765C50.2664 15.7739 49.301 11.8312 49.301 11.8312C49.3203 11.847 48.4979 12.1217 48.0535 12.1167C48.0478 13.273 47.0712 16.035 44.4355 15.9997C41.478 15.9602 40.8767 11.4507 40.8767 11.4507C40.8767 11.4507 40.5824 11.869 39.4633 12.2856C39.5197 11.3973 39.4785 15.8644 35.9337 15.9301C33.1314 15.9821 32.3749 11.3812 32.3749 11.3812C32.3749 11.3812 31.8888 11.898 30.9466 12.0773C31.0065 11.1745 30.9091 15.9453 27.364 15.9301C24.9682 15.9199 24.1495 13.096 24.2131 12.704C24.2944 12.2045 23.4035 16.0004 21.0763 15.9412C20.116 15.9124 19.4 15.2007 18.9507 14.252C18.3493 14.9563 17.4761 15.9412 16.4966 15.9412C14.7383 15.9412 13.9631 14.4361 14.0944 10.1373C14.1056 9.62741 14.0696 9.42686 13.5744 9.35059C13.2771 9.29983 12.9727 9.20373 12.6506 9.15306C12.5474 9.50563 11.6717 15.8265 8.6608 15.9465C7.65069 15.9867 7.09836 15.0912 6.64477 14.4266C5.94945 15.3679 5.03159 15.9765 3.72402 15.9765C1.50909 15.9765 0 14.144 0 11.8834C0 9.62284 1.50909 7.79051 3.72402 7.79051C4.11564 7.79051 4.22557 7.84796 4.58334 7.95479C3.84758 1.09888 5.58516 0.0273949 7.10517 0.0273949C8.56446 0.0273949 11.0575 3.49375 7.54958 12.2863C8.32841 14.9088 10.0074 14.7605 10.8142 9.36179C10.9784 8.26439 10.5394 6.78351 11.2223 6.57683C12.4707 6.1991 12.6032 7.3324 13.1885 7.52123C13.8075 7.72079 14.1688 7.70131 14.7629 7.8283C15.7783 8.03123 16.1745 8.58944 16.0508 9.8327C15.9022 11.4058 15.6424 13.6955 16.4347 13.9745C17.0061 14.1772 18.0493 12.9645 18.2323 12.301C18.4153 11.6375 18.4536 11.4104 18.4698 10.9237C18.4946 9.88355 18.5256 9.12108 18.6989 8.33444C18.7731 8.03005 18.8577 7.82847 19.1942 7.81469C19.4711 7.80747 19.9774 7.72214 20.2003 7.8997C20.4974 8.12815 20.4603 8.35997 20.4262 8.97009C20.0807 17.669 22.74 13.3264 23.533 9.84933C23.2506 5.91757 23.4445 0.0993923 25.8519 0.00181083C27.1039 -0.048937 27.6574 0.977591 27.7183 1.7438C27.8905 3.90785 26.9259 7.49257 25.6573 9.90329C24.9322 14.8222 28.8274 15.7948 29.4503 11.8685C28.4312 11.3726 27.3298 9.36541 28.226 8.38724C28.7289 7.83826 30.8223 8.6269 30.8566 10.347C31.8835 10.0659 32.0205 9.47254 32.0348 9.57088C31.7525 5.6391 32.0143 0.0994431 34.4219 0.00186107C35.6738 -0.0488868 36.2272 0.977642 36.2881 1.74385C36.4603 3.9079 35.4957 7.49262 34.2272 9.90337C33.5021 14.8222 37.3973 15.7949 38.02 11.8686C37.2655 11.7196 35.6728 9.58466 36.5918 8.38729C37.0829 7.74743 39.1686 9.07808 39.4021 10.4039C40.3885 10.1182 40.5225 9.54373 40.5367 9.64043C40.2543 5.70878 40.5161 0.169123 42.9237 0.0715409C44.1756 0.020793 44.729 1.04732 44.7899 1.81353C44.9621 3.97758 43.9975 7.56237 42.7288 9.97309C42.0039 14.892 45.899 15.8644 46.5219 11.9382C45.4851 11.7615 44.0115 9.50727 45.1975 8.35407C45.6713 7.8933 47.4819 9.08937 47.9058 10.4539C48.4947 10.4307 48.8612 10.2229 48.9398 10.2019C47.9997 5.58626 48.6995 0.0481578 51.2894 0.00192874C52.6893 -0.0230336 54.0578 0.776433 53.4571 5.16761C52.8837 9.35731 50.8227 11.1155 50.8275 11.1424C50.9474 11.6444 52.005 15.845 54.6682 13.6286C54.5304 13.3091 54.3923 12.9827 54.3152 12.5873C53.8738 10.284 54.7408 7.6825 57.0974 7.26203C58.4477 7.02114 59.7196 7.69391 59.9207 9.21063C60.2515 11.6925 58.0618 13.4898 57.2291 13.8797C56.8562 13.6629 60.6099 16.1267 62.8376 11.1891C62.9667 10.9072 63.1224 10.9311 63.3242 11.0764C63.4667 11.1791 64.2783 11.9659 63.9008 12.6319ZM5.33518 11.2736C5.22183 10.9268 4.98921 10.1626 4.90696 9.8315C4.45394 9.42833 4.13059 9.36283 3.54909 9.36283C2.25684 9.36283 1.49624 10.5856 1.49624 11.9041C1.49624 13.2226 2.32486 14.4455 3.61712 14.4455C4.73701 14.4455 5.58935 13.6662 5.84939 12.5631C5.66738 12.133 5.48682 11.7378 5.33518 11.2736ZM7.07351 1.8422C6.1655 1.8422 5.85748 4.05902 5.91726 5.95018C5.97013 7.62218 6.42664 9.09419 6.66346 9.75376C6.72359 9.83641 6.71242 9.78263 6.7661 9.87028C8.34269 6.33496 7.68877 1.8422 7.07351 1.8422ZM25.9816 1.91184C24.808 1.77409 24.8156 6.77739 24.9613 7.8997C25.5708 6.90179 26.6296 2.18053 25.9816 1.91184ZM34.5513 1.91184C33.3778 1.77409 33.3853 6.77739 33.5311 7.8997C34.1405 6.90179 35.1994 2.18053 34.5513 1.91184ZM43.0532 1.98145C41.8796 1.8437 41.8872 6.84703 42.0329 7.96941C42.6424 6.97142 43.7012 2.25012 43.0532 1.98145ZM51.419 1.61895C49.5905 1.99473 50.0163 8.23398 50.294 9.32827C52.4478 6.30076 52.4921 1.50523 51.419 1.61895ZM58.2716 9.41592C58.1786 9.01809 57.7138 8.80548 57.3929 8.85788C56.4749 8.9862 55.5844 10.1564 55.9291 11.938C56.0058 12.3348 56.1978 12.7 56.1947 12.6879C58.2494 11.2771 58.424 10.1655 58.2716 9.41592ZM19.5541 6.43756C19.2917 6.43761 19.0352 6.35802 18.817 6.20887C18.5988 6.0597 18.4287 5.84767 18.3283 5.59957C18.2278 5.35148 18.2015 5.07847 18.2527 4.81508C18.3038 4.55169 18.4302 4.30975 18.6157 4.11984C18.8013 3.92993 19.0376 3.80061 19.295 3.74821C19.5523 3.69581 19.8191 3.72269 20.0616 3.82546C20.304 3.92823 20.5112 4.10227 20.6569 4.32556C20.8027 4.54885 20.8805 4.81138 20.8805 5.07992C20.8805 5.2582 20.8462 5.43474 20.7795 5.59944C20.7129 5.76416 20.6152 5.91382 20.492 6.03989C20.3688 6.16595 20.2227 6.26596 20.0617 6.33419C19.9008 6.40243 19.7283 6.43755 19.5541 6.43756Z" fill="#0D0C22"/>
</svg>
