<svg width="23" height="22" viewBox="0 0 23 22" fill="none" xmlns="http://www.w3.org/2000/svg">
<path d="M21.5 11C21.5 16.5228 17.0228 21 11.5 21M21.5 11C21.5 5.47715 17.0228 1 11.5 1M21.5 11H1.5M11.5 21C5.97715 21 1.5 16.5228 1.5 11M11.5 21C14.0013 18.2616 15.4228 14.708 15.5 11C15.4228 7.29203 14.0013 3.73835 11.5 1M11.5 21C8.99872 18.2616 7.57725 14.708 7.5 11C7.57725 7.29203 8.99872 3.73835 11.5 1M1.5 11C1.5 5.47715 5.97715 1 11.5 1" stroke="#582066" stroke-width="2" stroke-linecap="round" stroke-linejoin="round"/>
</svg>
