<svg width="23" height="22" viewBox="0 0 23 22" fill="none" xmlns="http://www.w3.org/2000/svg">
<path d="M20.5 1L18.5 3M18.5 3L21.5 6L18 9.5L15 6.5M18.5 3L15 6.5M10.89 10.61C11.4064 11.1195 11.8168 11.726 12.0978 12.3948C12.3787 13.0635 12.5246 13.7813 12.5271 14.5066C12.5295 15.232 12.3884 15.9507 12.1119 16.6213C11.8355 17.2919 11.4291 17.9012 10.9162 18.4141C10.4033 18.9271 9.79395 19.3334 9.12333 19.6099C8.45271 19.8864 7.73403 20.0275 7.00866 20.025C6.2833 20.0226 5.56557 19.8767 4.89682 19.5958C4.22807 19.3148 3.6215 18.9043 3.11203 18.388C2.11016 17.3507 1.55579 15.9614 1.56832 14.5193C1.58085 13.0772 2.15928 11.6977 3.17903 10.678C4.19877 9.65825 5.57824 9.07982 7.02032 9.06729C8.46241 9.05476 9.85172 9.60913 10.889 10.611L10.89 10.61ZM10.89 10.61L15 6.5" stroke="#582066" stroke-width="2" stroke-linecap="round" stroke-linejoin="round"/>
</svg>
