<svg width="21" height="22" viewBox="0 0 21 22" fill="none" xmlns="http://www.w3.org/2000/svg">
<path d="M5.5 10V6C5.5 4.67392 6.02678 3.40215 6.96447 2.46447C7.90215 1.52678 9.17392 1 10.5 1C11.8261 1 13.0979 1.52678 14.0355 2.46447C14.9732 3.40215 15.5 4.67392 15.5 6V10M3.5 10H17.5C18.6046 10 19.5 10.8954 19.5 12V19C19.5 20.1046 18.6046 21 17.5 21H3.5C2.39543 21 1.5 20.1046 1.5 19V12C1.5 10.8954 2.39543 10 3.5 10Z" stroke="#582066" stroke-width="2" stroke-linecap="round" stroke-linejoin="round"/>
</svg>
