<svg width="66" height="16" viewBox="0 0 66 16" fill="none" xmlns="http://www.w3.org/2000/svg">
<mask id="mask0_2004_1500" style="mask-type:luminance" maskUnits="userSpaceOnUse" x="0" y="0" width="66" height="16">
<path d="M65.4748 0H0.141479V16H65.4748V0Z" fill="white"/>
</mask>
<g mask="url(#mask0_2004_1500)">
<path d="M13.3364 15.7114H22.0797C22.3574 15.7115 22.6302 15.6402 22.8707 15.5047C23.1112 15.3692 23.3109 15.1743 23.4497 14.9396C23.5885 14.705 23.6615 14.4388 23.6614 14.1678C23.6613 13.8969 23.5881 13.6308 23.449 13.3962L17.5773 3.47351C17.4385 3.23889 17.2388 3.04406 16.9984 2.90859C16.7579 2.77313 16.4851 2.70181 16.2075 2.70181C15.9298 2.70181 15.6571 2.77313 15.4166 2.90859C15.1762 3.04406 14.9765 3.23889 14.8378 3.47351L13.3364 6.01236L10.4009 1.04771C10.262 0.813106 10.0623 0.618301 9.82177 0.482862C9.58122 0.347424 9.30841 0.276123 9.03074 0.276123C8.75305 0.276123 8.48025 0.347424 8.2397 0.482862C7.9992 0.618301 7.79947 0.813106 7.66058 1.04771L0.353851 13.3962C0.214847 13.6308 0.1416 13.8969 0.14148 14.1678C0.141359 14.4388 0.214367 14.705 0.353163 14.9396C0.491958 15.1743 0.691646 15.3692 0.932138 15.5047C1.17264 15.6402 1.44546 15.7115 1.72317 15.7114H7.2115C9.38606 15.7114 10.9897 14.7795 12.0932 12.9614L14.7721 8.43486L16.2071 6.01236L20.5136 13.289H14.7721L13.3364 15.7114ZM7.12202 13.2865L3.29188 13.2856L9.03327 3.58408L11.8981 8.43486L9.97995 11.677C9.24717 12.8567 8.41468 13.2865 7.12202 13.2865Z" fill="#00DC82"/>
<path d="M30.1486 15.566V9.7887C30.1486 8.13545 29.9774 6.4822 29.9774 6.4822C29.9774 6.4822 30.6278 7.9901 31.4493 9.4072L34.9577 15.566H37.7131V2.84863H35.1288V8.62595C35.1288 10.2792 35.3 11.9506 35.3 11.9506C35.3 11.9506 34.6496 10.4245 33.8453 9.0075L30.3197 2.84863H27.5814V15.566H30.1486Z" fill="black"/>
<path d="M45.8549 6.40967V11.424C45.8549 12.5867 45.119 13.4588 44.075 13.4588C43.0995 13.4588 42.4149 12.6594 42.4149 11.5511V6.40967H40.036V12.1143C40.036 14.2036 41.3025 15.7116 43.2364 15.7116C44.4173 15.7116 45.3757 15.1665 45.8549 14.2945V15.5662H48.2509V6.40967H45.8549Z" fill="black"/>
<path d="M55.2184 10.8063L58.1111 6.40967H55.4923L53.918 8.82597L52.3432 6.40967H49.7419L52.6345 10.7881L49.5195 15.5662H52.0698L53.9349 12.7502L55.7831 15.5662H58.3164L55.2184 10.8063Z" fill="black"/>
<path d="M60.7853 6.40962H59.125V8.51707H60.7853V12.2415C60.7853 14.3671 62.0688 15.5662 64.0542 15.5662H65.4745V13.4405H64.3793C63.6093 13.4405 63.1639 13.0227 63.1639 12.1325V8.51707H65.4745V6.40962H63.1639V3.70264H60.7853V6.40962Z" fill="black"/>
</g>
</svg>
