<svg width="46" height="16" viewBox="0 0 46 16" fill="none" xmlns="http://www.w3.org/2000/svg">
<path fill-rule="evenodd" clip-rule="evenodd" d="M20.0167 0.459418C19.4019 1.05095 19.4019 2.06487 20.0167 2.67711C20.6314 3.28967 21.6491 3.28967 22.2639 2.67711C22.8784 2.06487 22.8784 1.05095 22.2639 0.459418C21.6491 -0.153139 20.6314 -0.153139 20.0167 0.459418ZM32.3688 4.60415L30.9273 4.83637C28.1773 5.4607 26.3906 6.35525 26.3906 9.3627V15.3974L28.8923 15.9042V9.7396C28.8923 8.3342 29.6887 7.6994 30.9273 7.4647L32.3688 7.20155V4.60415ZM13.3283 15.4221L15.8301 15.9289V9.10665C15.8301 5.83265 13.2861 4.64992 11.5264 4.64992C10.3393 4.64992 9.40677 4.94553 8.55858 5.7693C7.68958 4.94553 6.65085 4.62889 5.80267 4.62889C4.59447 4.62889 3.53432 5.1567 2.83479 6.0018V4.86111L0.333374 5.3469V15.4221L2.83479 15.9289V9.0009C2.83479 7.90255 3.64046 7.12115 4.84896 7.12115C6.03606 7.12115 6.8417 7.90255 6.8417 9.0009V15.4221L9.3431 15.9289V9.0009C9.3431 7.90255 10.1485 7.12115 11.3359 7.12115C12.523 7.12115 13.3283 7.90255 13.3283 9.0009V15.4221ZM45.6667 10.304C45.6667 13.4453 43.1026 16 39.9708 16C36.818 16 34.2539 13.4453 34.2539 10.304C34.2539 7.18365 36.818 4.62889 39.9708 4.62889C43.1026 4.62889 45.6667 7.18365 45.6667 10.304ZM39.9708 13.6335C38.1423 13.6335 36.6498 12.1469 36.6498 10.304C36.6498 8.48205 38.1423 7.01605 39.9708 7.01605C41.7994 7.01605 43.2705 8.48205 43.2705 10.304C43.2705 12.1469 41.7994 13.6335 39.9708 13.6335ZM22.3697 16L19.8683 15.4221V5.27515L22.3697 4.76834V16Z" fill="black"/>
</svg>
