<svg width="71" height="16" viewBox="0 0 71 16" fill="none" xmlns="http://www.w3.org/2000/svg">
<path d="M39.4919 0.239333H43.8239L41.6439 15.7873H37.3119L39.4919 0.239333ZM34.0299 0.239333L31.1066 9.196L29.8313 0.239333H26.8013L22.9733 9.16933L22.4953 0.24H18.2959L19.7579 15.788H23.2399L27.5453 5.95467L29.0599 15.788H32.4886L38.1499 0.239333H34.0299ZM70.4019 9.276H60.1159C60.1693 11.296 61.3786 12.6247 63.1593 12.6247C64.5019 12.6247 65.5646 11.9067 66.3886 10.538L69.8606 12.1167C68.6673 14.468 66.1526 16 63.0533 16C58.8273 16 56.0233 13.156 56.0233 8.58467C56.0233 3.56133 59.3186 0 63.9699 0C68.0633 0 70.6413 2.764 70.6413 7.07C70.6413 7.78733 70.5612 8.50467 70.4019 9.276ZM66.5486 6.29867C66.5486 4.492 65.5379 3.34867 63.9173 3.34867C62.2426 3.34867 60.8606 4.54467 60.4879 6.29867H66.5486ZM4.75459 4.92467L0.333252 10.0927H8.22925L9.11592 7.656H5.73325L7.79992 5.26533L7.80659 5.202L6.46259 2.888H12.5106L7.82259 15.788H11.0306L16.6919 0.238667H2.06659L4.75525 4.924L4.75459 4.92467ZM50.8666 3.34867C52.3946 3.34867 53.7333 4.17067 54.9033 5.57933L55.5173 1.196C54.4286 0.458667 52.9533 0 50.9999 0C47.1199 0 44.9399 2.27267 44.9399 5.156C44.9399 7.156 46.0566 8.37867 47.8906 9.16933L48.7673 9.568C50.4019 10.266 50.8406 10.6113 50.8406 11.3487C50.8406 12.1127 50.1033 12.598 48.9806 12.598C47.1259 12.6047 45.6246 11.6547 44.4953 10.0333L43.8686 14.4993C45.1559 15.48 46.8053 16 48.9799 16C52.6679 16 54.9333 13.8733 54.9333 10.9233C54.9333 8.91667 54.0433 7.628 51.7973 6.618L50.8406 6.166C49.5113 5.57467 49.0599 5.24933 49.0599 4.598C49.0599 3.894 49.6779 3.34867 50.8666 3.34867Z" fill="#163300"/>
</svg>
